<svg id="Icon_-_Product_List" data-name="Icon - Product List" xmlns="http://www.w3.org/2000/svg" width="20" height="20" viewBox="0 0 20 20">
  <g id="Group_439" data-name="Group 439">
    <rect id="Rectangle_2237" data-name="Rectangle 2237" width="20" height="20" fill="none"/>
  </g>
  <g id="Group_441" data-name="Group 441" transform="translate(1.755 2.625)">
    <g id="Group_440" data-name="Group 440">
      <path id="Path_3547" data-name="Path 3547" d="M18.418,7.827l-.866-3.581A1.618,1.618,0,0,0,15.976,3H4.517A1.618,1.618,0,0,0,2.95,4.246L2.083,7.827a2.751,2.751,0,0,0,.511,2.36,3.151,3.151,0,0,0,.231.238v5.687a1.649,1.649,0,0,0,1.65,1.639h11.55a1.649,1.649,0,0,0,1.65-1.639V10.424a3.041,3.041,0,0,0,.231-.229A2.742,2.742,0,0,0,18.418,7.827Zm-2.467-3.2.866,3.581a1.105,1.105,0,0,1-.206.959.97.97,0,0,1-.775.385,1.028,1.028,0,0,1-1-.934l-.478-3.982Zm-4.876.008h1.617l.445,3.7a1.1,1.1,0,0,1-.272.877.987.987,0,0,1-.784.336,1.045,1.045,0,0,1-1.006-1.073Zm-3.721,3.7.454-3.7H9.426V8.482A1.056,1.056,0,0,1,8.362,9.556a1,1,0,0,1-.734-.336A1.159,1.159,0,0,1,7.355,8.343ZM3.684,8.212l.833-3.573H6.142L5.664,8.621a1.035,1.035,0,0,1-1,.934A.951.951,0,0,1,3.9,9.17,1.078,1.078,0,0,1,3.684,8.212Zm.792,7.9V11.17a1.5,1.5,0,0,0,.19.025,2.59,2.59,0,0,0,1.848-.778,2.662,2.662,0,0,0,1.906.778,2.624,2.624,0,0,0,1.84-.762,2.714,2.714,0,0,0,1.889.762A2.628,2.628,0,0,0,14,10.416a2.59,2.59,0,0,0,1.848.778,1.5,1.5,0,0,0,.19-.025v4.941Z" transform="translate(-2.005 -3)" fill="#065f46"/>
    </g>
  </g>
</svg>
