<svg xmlns="http://www.w3.org/2000/svg" width="626.811" height="181.756" viewBox="0 0 626.811 181.756">
  <g id="Group_7" data-name="Group 7" transform="translate(-23 -14.156)">
    <path id="Path_4866" data-name="Path 4866" d="M3792,1292.323v164.51" transform="translate(-3675.633 -1278.167)" fill="#e1e1e1" stroke="#e1e1e1" stroke-width="1"/>
    <path id="Path_4867" data-name="Path 4867" d="M0,0V4.983" transform="translate(116.367 91.828) rotate(90)" fill="#e1e1e1" stroke="#e1e1e1" stroke-width="1"/>
    <path id="Path_4868" data-name="Path 4868" d="M0,0V4.983" transform="translate(116.367 140.747) rotate(90)" fill="#e1e1e1" stroke="#e1e1e1" stroke-width="1"/>
    <path id="Path_4869" data-name="Path 4869" d="M0,0V4.983" transform="translate(116.367 42.908) rotate(90)" fill="#e1e1e1" stroke="#e1e1e1" stroke-width="1"/>
    <path id="Path_4870" data-name="Path 4870" d="M3792,1292.323v164.51" transform="translate(-3610.131 -1278.167)" fill="#e1e1e1" stroke="#e1e1e1" stroke-width="1"/>
    <path id="Path_4871" data-name="Path 4871" d="M3792,1292.323v164.51" transform="translate(-3558.658 -1278.167)" fill="#e1e1e1" stroke="#e1e1e1" stroke-width="1"/>
    <path id="Path_4872" data-name="Path 4872" d="M3792,1292.323v164.51" transform="translate(-3500.515 -1278.167)" fill="#e1e1e1" stroke="#e1e1e1" stroke-width="1"/>
    <path id="Path_4873" data-name="Path 4873" d="M3792,1292.323v164.51" transform="translate(-3441.636 -1278.167)" fill="#e1e1e1" stroke="#e1e1e1" stroke-width="1"/>
    <path id="Path_4874" data-name="Path 4874" d="M3792,1292.323v164.51" transform="translate(-3383.494 -1278.167)" fill="#e1e1e1" stroke="#e1e1e1" stroke-width="1"/>
    <path id="Path_4875" data-name="Path 4875" d="M3792,1292.323v164.51" transform="translate(-3324.615 -1278.167)" fill="#e1e1e1" stroke="#e1e1e1" stroke-width="1"/>
    <path id="Path_4876" data-name="Path 4876" d="M3792,1292.323v164.51" transform="translate(-3266.472 -1278.167)" fill="#e1e1e1" stroke="#e1e1e1" stroke-width="1"/>
    <path id="Path_4877" data-name="Path 4877" d="M3792,1292.323v164.51" transform="translate(-3215.046 -1278.167)" fill="#e1e1e1" stroke="#e1e1e1" stroke-width="1"/>
    <path id="Path_4878" data-name="Path 4878" d="M3792,1292.323v164.51" transform="translate(-3148.714 -1278.167)" fill="#e1e1e1" stroke="#e1e1e1" stroke-width="1"/>
    <text id="_0" data-name="0" transform="translate(115.465 193.912)" font-size="10" font-family="MeiryoUI, Meiryo UI"><tspan x="-3.105" y="0">0</tspan></text>
    <text id="アンロック済み機能" transform="translate(68 153.626)" font-size="12" font-family="MeiryoUI, Meiryo UI"><tspan x="-44.273" y="0">アンロック済み機能</tspan></text>
    <text id="サービス利用" transform="translate(80.397 99.707)" font-size="12" font-family="MeiryoUI, Meiryo UI"><tspan x="-30.633" y="0">サービス利用</tspan></text>
    <text id="定期購読契約" transform="translate(72.553 45.788)" font-size="12" font-family="MeiryoUI, Meiryo UI" letter-spacing="0.1em"><tspan x="-39" y="0">定期購読契約</tspan></text>
    <text id="_10" data-name="10" transform="translate(181.065 193.912)" font-size="10" font-family="MeiryoUI, Meiryo UI"><tspan x="-6.211" y="0">10</tspan></text>
    <text id="_20" data-name="20" transform="translate(233.116 193.912)" font-size="10" font-family="MeiryoUI, Meiryo UI"><tspan x="-6.211" y="0">20</tspan></text>
    <text id="_30" data-name="30" transform="translate(291.223 193.912)" font-size="10" font-family="MeiryoUI, Meiryo UI"><tspan x="-6.211" y="0">30</tspan></text>
    <text id="_40" data-name="40" transform="translate(349.331 193.912)" font-size="10" font-family="MeiryoUI, Meiryo UI"><tspan x="-6.211" y="0">40</tspan></text>
    <text id="_50" data-name="50" transform="translate(407.439 193.912)" font-size="10" font-family="MeiryoUI, Meiryo UI"><tspan x="-6.211" y="0">50</tspan></text>
    <text id="_60" data-name="60" transform="translate(467.017 193.912)" font-size="10" font-family="MeiryoUI, Meiryo UI"><tspan x="-6.211" y="0">60</tspan></text>
    <text id="_70" data-name="70" transform="translate(525.125 193.912)" font-size="10" font-family="MeiryoUI, Meiryo UI"><tspan x="-6.211" y="0">70</tspan></text>
    <text id="_80" data-name="80" transform="translate(576.151 193.912)" font-size="10" font-family="MeiryoUI, Meiryo UI"><tspan x="-6.211" y="0">80</tspan></text>
    <text id="_90" data-name="90" transform="translate(642.811 193.912)" font-size="10" font-family="MeiryoUI, Meiryo UI"><tspan x="-6.211" y="0">90</tspan></text>
    <rect id="Rectangle_2318" data-name="Rectangle 2318" width="511.51" height="36.482" transform="translate(115.952 24.667)" fill="#3c7dc0"/>
    <rect id="Rectangle_2319" data-name="Rectangle 2319" width="376.824" height="36.482" transform="translate(115.952 78.586)" fill="#1d9e48"/>
    <rect id="Rectangle_2320" data-name="Rectangle 2320" width="188.412" height="36.482" transform="translate(115.952 132.506)" fill="#59c0cb"/>
  </g>
</svg>
