<svg xmlns="http://www.w3.org/2000/svg" width="800" height="300" viewBox="0 0 800 300">
  <g id="Group_1" data-name="Group 1" transform="translate(-52 -23)">
    <path id="Path_4865" data-name="Path 4865" d="M7.273,0H792.727A7.168,7.168,0,0,1,800,7.059V292.941A7.168,7.168,0,0,1,792.727,300H7.273A7.168,7.168,0,0,1,0,292.941V7.059A7.168,7.168,0,0,1,7.273,0Z" transform="translate(52 23)" fill="#fff"/>
    <path id="Path_4866" data-name="Path 4866" d="M3792,1292.324V1479.35" transform="translate(-3609 -1220)" fill="#e1e1e1" stroke="#e1e1e1" stroke-width="1"/>
    <path id="Path_4867" data-name="Path 4867" d="M3792,1292.324v6.01" transform="translate(1475.324 -3626) rotate(90)" fill="#e1e1e1" stroke="#e1e1e1" stroke-width="1"/>
    <path id="Path_4868" data-name="Path 4868" d="M3792,1292.324v6.01" transform="translate(1475.324 -3567) rotate(90)" fill="#e1e1e1" stroke="#e1e1e1" stroke-width="1"/>
    <path id="Path_4869" data-name="Path 4869" d="M3792,1292.324v6.01" transform="translate(1475.324 -3685) rotate(90)" fill="#e1e1e1" stroke="#e1e1e1" stroke-width="1"/>
    <path id="Path_4870" data-name="Path 4870" d="M3792,1292.324V1479.35" transform="translate(-3530 -1220)" fill="#e1e1e1" stroke="#e1e1e1" stroke-width="1"/>
    <path id="Path_4871" data-name="Path 4871" d="M3792,1292.324V1479.35" transform="translate(-3467.92 -1220)" fill="#e1e1e1" stroke="#e1e1e1" stroke-width="1"/>
    <path id="Path_4872" data-name="Path 4872" d="M3792,1292.324V1479.35" transform="translate(-3397.796 -1220)" fill="#e1e1e1" stroke="#e1e1e1" stroke-width="1"/>
    <path id="Path_4873" data-name="Path 4873" d="M3792,1292.324V1479.35" transform="translate(-3326.784 -1220)" fill="#e1e1e1" stroke="#e1e1e1" stroke-width="1"/>
    <path id="Path_4874" data-name="Path 4874" d="M3792,1292.324V1479.35" transform="translate(-3256.66 -1220)" fill="#e1e1e1" stroke="#e1e1e1" stroke-width="1"/>
    <path id="Path_4875" data-name="Path 4875" d="M3792,1292.324V1479.35" transform="translate(-3185.648 -1220)" fill="#e1e1e1" stroke="#e1e1e1" stroke-width="1"/>
    <path id="Path_4876" data-name="Path 4876" d="M3792,1292.324V1479.35" transform="translate(-3115.523 -1220)" fill="#e1e1e1" stroke="#e1e1e1" stroke-width="1"/>
    <path id="Path_4877" data-name="Path 4877" d="M3792,1292.324V1479.35" transform="translate(-3053.5 -1220)" fill="#e1e1e1" stroke="#e1e1e1" stroke-width="1"/>
    <path id="Path_4878" data-name="Path 4878" d="M3792,1292.324V1479.35" transform="translate(-2973.5 -1220)" fill="#e1e1e1" stroke="#e1e1e1" stroke-width="1"/>
    <text id="_0" data-name="0" transform="translate(182.5 277)" font-size="11" font-family="MeiryoUI, Meiryo UI"><tspan x="-3.416" y="0">0</tspan></text>
    <text id="アンロック済み機能" transform="translate(119 229)" font-size="14" font-family="MeiryoUI, Meiryo UI"><tspan x="-61.652" y="0">アンロック済み機能</tspan></text>
    <text id="サービス利用" transform="translate(135 170)" font-size="14" font-family="MeiryoUI, Meiryo UI"><tspan x="-45.738" y="0">サービス利用</tspan></text>
    <text id="定期購読契約" transform="translate(129 111)" font-size="14" font-family="MeiryoUI, Meiryo UI" letter-spacing="0.1em"><tspan x="-45.5" y="0">定期購読契約</tspan></text>
    <text id="_10" data-name="10" transform="translate(262 277)" font-size="11" font-family="MeiryoUI, Meiryo UI"><tspan x="-6.832" y="0">10</tspan></text>
    <text id="_20" data-name="20" transform="translate(324.777 277)" font-size="11" font-family="MeiryoUI, Meiryo UI"><tspan x="-6.832" y="0">20</tspan></text>
    <text id="_30" data-name="30" transform="translate(394.858 277)" font-size="11" font-family="MeiryoUI, Meiryo UI"><tspan x="-6.832" y="0">30</tspan></text>
    <text id="_40" data-name="40" transform="translate(464.94 277)" font-size="11" font-family="MeiryoUI, Meiryo UI"><tspan x="-6.832" y="0">40</tspan></text>
    <text id="_50" data-name="50" transform="translate(535.022 277)" font-size="11" font-family="MeiryoUI, Meiryo UI"><tspan x="-6.832" y="0">50</tspan></text>
    <text id="_60" data-name="60" transform="translate(606.878 277)" font-size="11" font-family="MeiryoUI, Meiryo UI"><tspan x="-6.832" y="0">60</tspan></text>
    <text id="_70" data-name="70" transform="translate(676.96 277)" font-size="11" font-family="MeiryoUI, Meiryo UI"><tspan x="-6.832" y="0">70</tspan></text>
    <text id="_80" data-name="80" transform="translate(738.5 277)" font-size="11" font-family="MeiryoUI, Meiryo UI"><tspan x="-6.832" y="0">80</tspan></text>
    <text id="_90" data-name="90" transform="translate(818.897 277)" font-size="11" font-family="MeiryoUI, Meiryo UI"><tspan x="-6.832" y="0">90</tspan></text>
    <rect id="Rectangle_2318" data-name="Rectangle 2318" width="616.916" height="44" transform="translate(182.5 85)" fill="#3c7dc0"/>
    <rect id="Rectangle_2319" data-name="Rectangle 2319" width="454.476" height="44" transform="translate(182.5 144)" fill="#1d9e48"/>
    <rect id="Rectangle_2320" data-name="Rectangle 2320" width="227.238" height="44" transform="translate(182.5 203)" fill="#59c0cb"/>
  </g>
</svg>
