<svg id="Layer_1" data-name="Layer 1" xmlns="http://www.w3.org/2000/svg" viewBox="0 0 21 21"><defs><style>.cls-1{fill:none;}.cls-2{fill:#1e9e49;}</style></defs><path id="Path_3523" data-name="Path 3523" class="cls-1" d="M0,0H21V21H0Z"/><path id="Path_3524" data-name="Path 3524" class="cls-2" d="M15.5,14.75H5.5v-1.7h10Zm0-3.4H5.5V9.65h10Zm0-3.4H5.5V6.25h10ZM3,19l1.25-1.27L5.5,19l1.25-1.27L8,19l1.25-1.27L10.5,19l1.25-1.27L13,19l1.25-1.27L15.5,19l1.25-1.27L18,19V2L16.75,3.28,15.5,2,14.25,3.28,13,2,11.75,3.28,10.5,2,9.25,3.28,8,2,6.75,3.28,5.5,2,4.25,3.28,3,2Z"/></svg>