<svg xmlns="http://www.w3.org/2000/svg" width="623.167" height="208" viewBox="0 0 623.167 208">
  <g id="Group_8" data-name="Group 8" transform="translate(-26 -256)">
    <path id="Path_4880" data-name="Path 4880" d="M0,0V597.006" transform="translate(649.167 441.555) rotate(90)" fill="#e1e1e1" stroke="#e1e1e1" stroke-width="1"/>
    <path id="Path_4881" data-name="Path 4881" d="M0,0V597.006" transform="translate(649.167 299.299) rotate(90)" fill="#e1e1e1" stroke="#e1e1e1" stroke-width="1"/>
    <path id="Path_4882" data-name="Path 4882" d="M0,0V597.006" transform="translate(649.167 334.863) rotate(90)" fill="#e1e1e1" stroke="#e1e1e1" stroke-width="1"/>
    <path id="Path_4883" data-name="Path 4883" d="M0,0V597.006" transform="translate(649.167 370.427) rotate(90)" fill="#e1e1e1" stroke="#e1e1e1" stroke-width="1"/>
    <path id="Path_4884" data-name="Path 4884" d="M0,0V597.006" transform="translate(649.167 405.991) rotate(90)" fill="#e1e1e1" stroke="#e1e1e1" stroke-width="1"/>
    <text id="_0" data-name="0" transform="translate(36 443)" font-size="10" font-family="MeiryoUI, Meiryo UI"><tspan x="-3.105" y="0">0</tspan></text>
    <text id="_80" data-name="80" transform="translate(36 302)" font-size="10" font-family="MeiryoUI, Meiryo UI"><tspan x="-6.211" y="0">80</tspan></text>
    <text id="_60" data-name="60" transform="translate(36 336)" font-size="10" font-family="MeiryoUI, Meiryo UI"><tspan x="-6.211" y="0">60</tspan></text>
    <text id="_40" data-name="40" transform="translate(36 373)" font-size="10" font-family="MeiryoUI, Meiryo UI"><tspan x="-6.211" y="0">40</tspan></text>
    <text id="_20" data-name="20" transform="translate(36 410)" font-size="10" font-family="MeiryoUI, Meiryo UI"><tspan x="-6.211" y="0">20</tspan></text>
    <rect id="Rectangle_2321" data-name="Rectangle 2321" width="151.424" height="157.873" transform="translate(265.403 283.552)" fill="#3c7dc0"/>
    <rect id="Rectangle_2322" data-name="Rectangle 2322" width="145.493" height="55.25" transform="translate(75.078 386.175)" fill="#59c0cb"/>
    <rect id="Rectangle_2323" data-name="Rectangle 2323" width="157.355" height="121.802" transform="translate(461.66 319.623)" fill="#1d9e48"/>
    <text id="アンロック済み機能" transform="translate(146 461)" font-size="12" font-family="MeiryoUI, Meiryo UI"><tspan x="-44.273" y="0">アンロック済み機能</tspan></text>
    <text id="サービス利用" transform="translate(537 461)" font-size="11" font-family="MeiryoUI, Meiryo UI"><tspan x="-28.08" y="0">サービス利用</tspan></text>
    <text id="定期購読契約" transform="translate(338 461)" font-size="12" font-family="MeiryoUI, Meiryo UI" letter-spacing="0.1em"><tspan x="-39" y="0">定期購読契約</tspan></text>
    <path id="Path_4885" data-name="Path 4885" d="M3792,1292.323v179.308" transform="translate(-3739.839 -1029.796)" fill="#e1e1e1" stroke="#e1e1e1" stroke-width="1"/>
    <path id="Path_4886" data-name="Path 4886" d="M0,0V597.006" transform="translate(649.167 262.528) rotate(90)" fill="#e1e1e1" stroke="#e1e1e1" stroke-width="1"/>
    <text id="_100" data-name="100" transform="translate(36 267)" font-size="10" font-family="MeiryoUI, Meiryo UI"><tspan x="-9.316" y="0">100</tspan></text>
  </g>
</svg>
