<svg xmlns="http://www.w3.org/2000/svg" width="800" height="300" viewBox="0 0 800 300">
  <g id="Group_2" data-name="Group 2" transform="translate(-52 -335)">
    <path id="Path_4879" data-name="Path 4879" d="M7.273,0H792.727A7.168,7.168,0,0,1,800,7.059V292.941A7.168,7.168,0,0,1,792.727,300H7.273A7.168,7.168,0,0,1,0,292.941V7.059A7.168,7.168,0,0,1,7.273,0Z" transform="translate(52 335)" fill="#fff"/>
    <path id="Path_4880" data-name="Path 4880" d="M3792,1292.324v722.01" transform="translate(2117.824 -3222.5) rotate(90)" fill="#e1e1e1" stroke="#e1e1e1" stroke-width="1"/>
    <path id="Path_4881" data-name="Path 4881" d="M3792,1292.324v722.01" transform="translate(2117.824 -3414.5) rotate(90)" fill="#e1e1e1" stroke="#e1e1e1" stroke-width="1"/>
    <path id="Path_4882" data-name="Path 4882" d="M3792,1292.324v722.01" transform="translate(2117.824 -3366.5) rotate(90)" fill="#e1e1e1" stroke="#e1e1e1" stroke-width="1"/>
    <path id="Path_4883" data-name="Path 4883" d="M3792,1292.324v722.01" transform="translate(2117.824 -3318.5) rotate(90)" fill="#e1e1e1" stroke="#e1e1e1" stroke-width="1"/>
    <path id="Path_4884" data-name="Path 4884" d="M3792,1292.324v722.01" transform="translate(2117.824 -3270.5) rotate(90)" fill="#e1e1e1" stroke="#e1e1e1" stroke-width="1"/>
    <text id="_0" data-name="0" transform="translate(86 574)" font-size="11" font-family="MeiryoUI, Meiryo UI"><tspan x="-3.416" y="0">0</tspan></text>
    <text id="_80" data-name="80" transform="translate(86 382)" font-size="11" font-family="MeiryoUI, Meiryo UI"><tspan x="-6.832" y="0">80</tspan></text>
    <text id="_60" data-name="60" transform="translate(86 430)" font-size="11" font-family="MeiryoUI, Meiryo UI"><tspan x="-6.832" y="0">60</tspan></text>
    <text id="_40" data-name="40" transform="translate(86 478)" font-size="11" font-family="MeiryoUI, Meiryo UI"><tspan x="-6.832" y="0">40</tspan></text>
    <text id="_20" data-name="20" transform="translate(86 526)" font-size="11" font-family="MeiryoUI, Meiryo UI"><tspan x="-6.832" y="0">20</tspan></text>
    <rect id="Rectangle_2321" data-name="Rectangle 2321" width="193" height="148" transform="translate(368 421.35)" fill="#3c7dc0"/>
    <rect id="Rectangle_2322" data-name="Rectangle 2322" width="193" height="74" transform="translate(130 495.35)" fill="#59c0cb"/>
    <rect id="Rectangle_2323" data-name="Rectangle 2323" width="193" height="107" transform="translate(606 462.35)" fill="#1d9e48"/>
    <text id="アンロック済み機能" transform="translate(226 596)" font-size="14" font-family="MeiryoUI, Meiryo UI"><tspan x="-51.652" y="0">アンロック済み機能</tspan></text>
    <text id="サービス利用" transform="translate(702 596)" font-size="14" font-family="MeiryoUI, Meiryo UI"><tspan x="-35.738" y="0">サービス利用</tspan></text>
    <text id="定期購読契約" transform="translate(464 596)" font-size="14" font-family="MeiryoUI, Meiryo UI" letter-spacing="0.1em"><tspan x="-45.5" y="0">定期購読契約</tspan></text>
    <path id="Path_4885" data-name="Path 4885" d="M3792,1292.324v192.95" transform="translate(-3688.51 -915.449)" fill="#e1e1e1" stroke="#e1e1e1" stroke-width="1"/>
  </g>
</svg>
