<svg xmlns="http://www.w3.org/2000/svg" width="150.758" height="21" viewBox="0 0 150.758 21"><defs><style>.a{fill:#a2dc7c;}.b{fill:#1d9e48;}.c,.d{fill:#fff;}.c{stroke:#a2dc7c;}.e{fill:#2a8635;}.f{fill:#f27e00;}.g{fill:#f8bf2a;}</style></defs><g transform="translate(0 0)"><g transform="translate(0 1.043)"><g transform="translate(0)"><g transform="translate(70.111 3.524)"><path class="a" d="M1018.964,116.576h-14.456v16.343h14.456l-4.933-8.171Z" transform="translate(-1004.509 -116.576)"/><path class="b" d="M1004.509,146.194v4.851l4.722-1.142a3.043,3.043,0,0,0,2.446-2.863v-.846Z" transform="translate(-1004.509 -134.613)"/></g><g transform="translate(0 3.524)"><path class="a" d="M782.188,116.576l5.362,8.171-5.362,8.171H797.9V116.576Z" transform="translate(-782.188 -116.576)"/><path class="b" d="M825.345,146.194v.846a3.043,3.043,0,0,0,2.446,2.863l4.722,1.142v-4.851Z" transform="translate(-816.801 -134.613)"/></g><rect class="c" width="68.638" height="16.343" transform="translate(8.554)"/></g><g transform="translate(14.462 3.867)"><path class="d" d="M321.562,75.584a2.769,2.769,0,1,1-2.769-2.769A2.769,2.769,0,0,1,321.562,75.584Z" transform="translate(-315.41 -70.786)"/><g transform="translate(8.004 0.985)"><path class="e" d="M371.052,69.593h-1.275a.135.135,0,0,0-.139.131v6.17a.139.139,0,0,0,.139.139h1.275a.139.139,0,0,0,.139-.139V69.733A.139.139,0,0,0,371.052,69.593Z" transform="translate(-363.487 -69.363)"/><path class="e" d="M406.812,71.51h-2.7a.138.138,0,0,0-.138.138v.963a.138.138,0,0,0,.138.137h1.432a1.287,1.287,0,0,1-1.416,1.289c-1.058,0-1.618-.672-1.618-1.943s.559-1.943,1.618-1.943a1.466,1.466,0,0,1,1.068.487s.072.078.1.109a.132.132,0,0,0,.092.053.134.134,0,0,0,.1-.028c.032-.023.95-.659.98-.682a.133.133,0,0,0,.053-.09.138.138,0,0,0-.027-.1c-.023-.031-.083-.1-.083-.1a2.94,2.94,0,0,0-2.281-1.112c-1.875,0-3.087,1.339-3.087,3.412s1.212,3.412,3.087,3.412a2.982,2.982,0,0,0,2.824-3.113v-.747A.138.138,0,0,0,406.812,71.51Z" transform="translate(-386.957 -68.683)"/><path class="e" d="M351.074,75.864a4.056,4.056,0,0,0-2.1-3.27,4.61,4.61,0,0,0,1.754-2.722s.017-.063.03-.139a.127.127,0,0,0-.127-.14h-1.14a.167.167,0,0,0-.157.14l-.041.139a2.788,2.788,0,0,1-2.547,2.072l-.076,0V69.658a.066.066,0,0,0-.066-.065h-1.254a.066.066,0,0,0-.065.065v6.315a.065.065,0,0,0,.065.065H346.6a.065.065,0,0,0,.066-.065V73.331a3,3,0,0,1,3.019,2.565h0v0a.14.14,0,0,0,.142.139h1.109a.134.134,0,0,0,.132-.114A.26.26,0,0,0,351.074,75.864Z" transform="translate(-345.283 -69.363)"/><path class="e" d="M382.867,69.593h-1.107a.14.14,0,0,0-.139.14V71.4a4.138,4.138,0,0,0-2.746-1.779c-.1-.014-.2-.021-.307-.026h-.939a.14.14,0,0,0-.14.14V75.9a.139.139,0,0,0,.14.139h1.106a.139.139,0,0,0,.14-.139V71.03c1.492.361,2.685,2.431,2.733,4.868,0,0,0,.032,0,.07a.07.07,0,0,0,.071.07h1.181a.142.142,0,0,0,.145-.139V69.733A.14.14,0,0,0,382.867,69.593Z" transform="translate(-369.355 -69.363)"/></g><g transform="translate(38.669 1.215)"><path class="e" d="M472,69.593h-5.154a.14.14,0,0,0-.14.14v.96a.14.14,0,0,0,.14.139h1.707a.167.167,0,0,1,.177.155V75.9a.139.139,0,0,0,.139.139h1.107a.138.138,0,0,0,.139-.139V70.987a.167.167,0,0,1,.177-.155H472a.14.14,0,0,0,.139-.139v-.96A.14.14,0,0,0,472,69.593Z" transform="translate(-466.706 -69.593)"/><path class="e" d="M490.994,69.593H489.72a.14.14,0,0,0-.14.14V75.9a.139.139,0,0,0,.14.139h1.275a.139.139,0,0,0,.139-.139V69.733A.14.14,0,0,0,490.994,69.593Z" transform="translate(-483.803 -69.593)"/><path class="e" d="M502.344,69.593h-3.762a1.334,1.334,0,0,0-1.413,1.239h0V75.9a.139.139,0,0,0,.139.139h1.138a.139.139,0,0,0,.139-.139V71.143a.333.333,0,0,1,.353-.31h.515a.373.373,0,0,1,.4.346v4.707a.139.139,0,0,0,.139.14h.961a.139.139,0,0,0,.139-.14V71.179a.373.373,0,0,1,.395-.346h.562a.29.29,0,0,1,.3.31V75.9a.139.139,0,0,0,.14.139h1.134a.139.139,0,0,0,.139-.139V70.832A1.335,1.335,0,0,0,502.344,69.593Z" transform="translate(-489.473 -69.593)"/><path class="e" d="M529.968,69.593h-3.861a1.492,1.492,0,0,0-1.386,1.58v3.27a1.494,1.494,0,0,0,1.386,1.583h3.861a.139.139,0,0,0,.14-.14v-.967a.139.139,0,0,0-.14-.139h-3.515a.374.374,0,0,1-.346-.4v-.956h3.427a.139.139,0,0,0,.139-.138v-.961a.139.139,0,0,0-.139-.139h-3.427v-.96a.372.372,0,0,1,.346-.394h3.515a.139.139,0,0,0,.14-.14v-.963A.14.14,0,0,0,529.968,69.593Z" transform="translate(-510.07 -69.593)"/></g><path class="e" d="M453.972,75.8h-2.509a1.067,1.067,0,0,0-1.062,1.068v3.7a.107.107,0,0,0,.107.107h.853a.107.107,0,0,0,.107-.107V78.849h2.325a.107.107,0,0,0,.107-.107v-.853a.107.107,0,0,0-.107-.107h-2.325v-.649a.267.267,0,0,1,.266-.266h2.238a.108.108,0,0,0,.107-.107v-.853A.107.107,0,0,0,453.972,75.8Z" transform="translate(-415.85 -73.017)"/><path class="e" d="M435.679,70.8h1.51a.109.109,0,0,0,.109-.108v-1.1c0-.059-.031-.071-.07-.025l-.291.344a.09.09,0,0,1-.141,0l-.291-.344a.089.089,0,0,0-.141,0l-.292.344a.088.088,0,0,1-.14,0l-.291-.344c-.039-.046-.07-.034-.07.025v1.1A.108.108,0,0,0,435.679,70.8Z" transform="translate(-404.764 -68.333)"/><path class="e" d="M433.886,77.8a2.6,2.6,0,1,1-2.6-2.6A2.6,2.6,0,0,1,433.886,77.8Z" transform="translate(-399.612 -72.567)"/><circle class="d" cx="1.488" cy="1.488" r="1.488" transform="translate(30.182 3.747)"/><path class="f" d="M440.085,74.33l-.726-.725v.487a2.557,2.557,0,0,0-2,2.1.474.474,0,1,0,.519.045,2.08,2.08,0,0,1,1.479-1.615v.429Z" transform="translate(-405.917 -71.377)"/><g transform="translate(2.488)"><path class="f" d="M324.856,65.15a.1.1,0,0,1-.146,0l-.3-.334a.1.1,0,0,0-.146,0l-.3.334a.1.1,0,0,1-.146,0l-.3-.334c-.04-.044-.072-.033-.072.025v1.068a.109.109,0,0,0,.113.106h1.567a.11.11,0,0,0,.113-.106V64.841c0-.058-.033-.069-.073-.025Z" transform="translate(-323.439 -64.783)"/></g><path class="e" d="M313.588,73.764a3.384,3.384,0,1,0,3.384-3.384A3.388,3.388,0,0,0,313.588,73.764Z" transform="translate(-313.588 -68.966)"/><path class="d" d="M316.025,75.584a2.769,2.769,0,1,1,2.769,2.769A2.772,2.772,0,0,1,316.025,75.584Z" transform="translate(-315.41 -70.786)"/><path class="e" d="M329.306,77.1c0,.25.139.452.311.452s.311-.2.311-.452-.139-.453-.311-.453S329.306,76.846,329.306,77.1Z" transform="translate(-325.337 -73.648)"/><path class="e" d="M322.83,77.1c0,.25-.139.452-.311.452s-.311-.2-.311-.452.139-.453.311-.453S322.83,76.846,322.83,77.1Z" transform="translate(-320.031 -73.648)"/><g transform="translate(0.856 4.098)"><path class="f" d="M318.3,81.907l-.621-.622.276-.276h-.976v.977l.276-.277,1.045,1.045,1.045-1.045-.424-.424Z" transform="translate(-316.978 -81.009)"/><path class="f" d="M330,81.009h-.977l.277.277-.622.621-.621-.622-.424.424,1.045,1.045,1.045-1.045.277.277Z" transform="translate(-324.939 -81.009)"/></g></g></g><g transform="translate(86.804 2.448)"><path class="g" d="M774.5,181.585l-2.991-5.645a.8.8,0,0,0-1.386,0l-2.99,5.645a.8.8,0,0,1-.949.362l-1.906-.625a.753.753,0,0,0-1,.9l1.659,5.152a.769.769,0,0,0,.741.516h10.27a.769.769,0,0,0,.741-.516l1.659-5.152a.753.753,0,0,0-1-.9l-1.906.625A.794.794,0,0,1,774.5,181.585Z" transform="translate(-761.612 -173.909)"/><path class="g" d="M781.441,173.07a1.629,1.629,0,1,1-1.629-1.629A1.629,1.629,0,0,1,781.441,173.07Z" transform="translate(-770.612 -171.441)"/><path class="g" d="M799.589,187.689a1.629,1.629,0,1,1-1.629-1.629A1.63,1.63,0,0,1,799.589,187.689Z" transform="translate(-781.545 -180.247)"/><path class="g" d="M762.4,187.689a1.629,1.629,0,1,1-1.629-1.629A1.629,1.629,0,0,1,762.4,187.689Z" transform="translate(-759.144 -180.247)"/></g><g transform="translate(107.895)"><path class="g" d="M776.466,182.644l-3.515-6.633a.938.938,0,0,0-1.629,0l-3.514,6.633a.935.935,0,0,1-1.115.426l-2.24-.735a.884.884,0,0,0-1.171,1.053l1.95,6.054a.9.9,0,0,0,.87.606h12.068a.9.9,0,0,0,.871-.606l1.95-6.054a.884.884,0,0,0-1.171-1.053l-2.24.735A.934.934,0,0,1,776.466,182.644Z" transform="translate(-761.327 -173.624)"/><path class="g" d="M782.011,173.355a1.915,1.915,0,1,1-1.915-1.914A1.915,1.915,0,0,1,782.011,173.355Z" transform="translate(-769.287 -171.441)"/><path class="g" d="M800.16,187.975a1.915,1.915,0,1,1-1.915-1.915A1.915,1.915,0,0,1,800.16,187.975Z" transform="translate(-778.956 -179.23)"/><path class="g" d="M762.973,187.975a1.914,1.914,0,1,1-1.914-1.915A1.914,1.914,0,0,1,762.973,187.975Z" transform="translate(-759.144 -179.23)"/></g><g transform="translate(131.809 1.747)"><path class="g" d="M775.06,181.889l-3.141-5.928a.838.838,0,0,0-1.456,0l-3.14,5.928a.835.835,0,0,1-1,.38l-2-.657a.79.79,0,0,0-1.046.941l1.743,5.41a.808.808,0,0,0,.778.542h10.785a.808.808,0,0,0,.778-.542l1.742-5.41a.79.79,0,0,0-1.046-.941l-2,.657A.834.834,0,0,1,775.06,181.889Z" transform="translate(-761.531 -173.827)"/><path class="g" d="M781.6,173.152a1.711,1.711,0,1,1-1.711-1.711A1.711,1.711,0,0,1,781.6,173.152Z" transform="translate(-770.233 -171.441)"/><path class="g" d="M799.753,187.771a1.711,1.711,0,1,1-1.711-1.711A1.711,1.711,0,0,1,799.753,187.771Z" transform="translate(-780.804 -179.956)"/><path class="g" d="M762.565,187.771a1.711,1.711,0,1,1-1.711-1.711A1.711,1.711,0,0,1,762.565,187.771Z" transform="translate(-759.144 -179.956)"/></g></g></svg>