<svg xmlns="http://www.w3.org/2000/svg" width="21" height="19.027" viewBox="0 0 21 19.027"><defs><style>.a{fill:#e27b1e;}.b{fill:#f1f1f1;}</style></defs><path class="a" d="M16,2.38H12.6A2.453,2.453,0,0,0,10.313,1,2.453,2.453,0,0,0,8.021,2.38h-3.4A1.522,1.522,0,0,0,3,3.761v9.662A1.522,1.522,0,0,0,4.625,14.8H16a1.522,1.522,0,0,0,1.625-1.38V3.761A1.522,1.522,0,0,0,16,2.38Zm-5.687,0a.761.761,0,0,1,.813.69.761.761,0,0,1-.812.69A.761.761,0,0,1,9.5,3.07.761.761,0,0,1,10.313,2.38Zm0,2.761a2.273,2.273,0,0,1,2.438,2.07,2.273,2.273,0,0,1-2.437,2.07,2.273,2.273,0,0,1-2.438-2.07A2.273,2.273,0,0,1,10.313,5.141Zm4.875,8.282H5.438v-.966c0-1.38,3.25-2.139,4.875-2.139s4.875.759,4.875,2.139Z" transform="translate(-3 -1)"/><ellipse class="b" cx="7" cy="6" rx="7" ry="6" transform="translate(7 7.027)"/><path class="a" d="M7,2C4.24,2,2,3.9,2,6.247s2.24,4.247,5,4.247,5-1.9,5-4.247S9.76,2,7,2ZM6,8.37,3.5,6.247l.7-.6L6,7.169,9.8,3.945l.7.6Z" transform="translate(7 6.919)"/></svg>