<svg xmlns="http://www.w3.org/2000/svg" width="232.461" height="32.394" viewBox="0 0 232.461 32.394"><defs><style>.a{fill:#fff;}.b{fill:#2a8635;}.c{fill:#f27e00;}</style></defs><g transform="translate(-313.588 -64.783)"><path class="a" d="M337.951,83.778a10.963,10.963,0,1,1-10.963-10.963A10.963,10.963,0,0,1,337.951,83.778Z"/><path class="b" d="M375.238,69.593h-5.049a.536.536,0,0,0-.551.518V94.543a.551.551,0,0,0,.551.551h5.049a.55.55,0,0,0,.551-.551v-24.4A.552.552,0,0,0,375.238,69.593Z"/><path class="b" d="M423.9,79.877H413.2a.546.546,0,0,0-.547.547v3.814a.545.545,0,0,0,.547.544h5.67c0,2.123-1.4,5.105-5.607,5.105-4.19,0-6.4-2.66-6.4-7.692s2.215-7.694,6.4-7.694a5.8,5.8,0,0,1,4.227,1.93s.287.309.378.43a.522.522,0,0,0,.363.208.532.532,0,0,0,.411-.11c.125-.09,3.762-2.608,3.88-2.7a.526.526,0,0,0,.208-.357.545.545,0,0,0-.107-.4c-.093-.122-.329-.41-.329-.41a11.643,11.643,0,0,0-9.031-4.4c-7.425,0-12.224,5.3-12.224,13.512s4.8,13.511,12.224,13.511c6.168,0,11.184-5.528,11.184-12.326V80.424A.545.545,0,0,0,423.9,79.877Z"/><path class="b" d="M368.213,94.423a16.06,16.06,0,0,0-8.319-12.948A18.256,18.256,0,0,0,366.839,70.7s.066-.249.12-.551a.5.5,0,0,0-.5-.554h-4.515a.661.661,0,0,0-.622.554c-.088.3-.164.551-.164.551-1.544,4.783-5.476,8.2-10.087,8.206-.1,0-.2-.006-.3-.008V69.851a.26.26,0,0,0-.26-.258h-4.967a.26.26,0,0,0-.259.258V94.857a.258.258,0,0,0,.259.258h4.967a.258.258,0,0,0,.26-.258V84.395c6.425.3,11.592,4.681,11.955,10.155h0v.016a.554.554,0,0,0,.561.549l.048,0h0l-.046,0h4.392a.531.531,0,0,0,.523-.453A1.029,1.029,0,0,0,368.213,94.423Z"/><path class="b" d="M398.786,69.593H394.4a.554.554,0,0,0-.55.554V76.74c-2.849-3.9-6.623-6.466-10.874-7.043-.4-.056-.81-.084-1.217-.1h-3.718a.555.555,0,0,0-.554.554V94.566a.551.551,0,0,0,.554.549h4.381a.552.552,0,0,0,.554-.549V75.282c5.908,1.431,10.631,9.626,10.823,19.275,0,0,.006.128.006.277a.278.278,0,0,0,.28.278l4.676,0a.562.562,0,0,0,.575-.549V70.147A.554.554,0,0,0,398.786,69.593Z"/><path class="b" d="M487.667,69.593H467.26a.556.556,0,0,0-.554.554v3.8a.555.555,0,0,0,.554.552h6.761a.66.66,0,0,1,.7.613V94.566a.548.548,0,0,0,.551.549h4.383a.548.548,0,0,0,.549-.549V75.114a.662.662,0,0,1,.7-.613h6.762a.554.554,0,0,0,.551-.552v-3.8A.555.555,0,0,0,487.667,69.593Z"/><path class="b" d="M495.18,69.593h-5.047a.554.554,0,0,0-.553.554V94.566a.549.549,0,0,0,.553.549h5.047a.549.549,0,0,0,.55-.549V70.147A.553.553,0,0,0,495.18,69.593Z"/><path class="b" d="M517.669,69.593h-14.9c-3.089,0-5.594,2.195-5.594,4.908h-.014V94.566a.55.55,0,0,0,.551.549h4.5a.55.55,0,0,0,.552-.549V75.729a1.32,1.32,0,0,1,1.4-1.228h2.038a1.479,1.479,0,0,1,1.565,1.371v18.64a.55.55,0,0,0,.549.555h3.8a.552.552,0,0,0,.551-.555V75.872a1.478,1.478,0,0,1,1.564-1.371h2.226a1.147,1.147,0,0,1,1.2,1.228V94.566a.551.551,0,0,0,.554.549h4.489a.549.549,0,0,0,.552-.549V74.5C523.264,71.788,520.758,69.593,517.669,69.593Z"/><path class="b" d="M545.5,69.593H530.207c-3.03,0-5.486,2.8-5.486,6.256V88.8c0,3.463,2.456,6.269,5.486,6.269H545.5a.551.551,0,0,0,.553-.555V90.684a.55.55,0,0,0-.553-.551H531.579a1.48,1.48,0,0,1-1.372-1.565V84.782h13.571a.549.549,0,0,0,.55-.548V80.428a.549.549,0,0,0-.55-.551H530.207v-3.8a1.475,1.475,0,0,1,1.372-1.56H545.5a.552.552,0,0,0,.553-.554V70.147A.554.554,0,0,0,545.5,69.593Z"/><path class="b" d="M464.539,75.8l-9.912,0h-.021a4.227,4.227,0,0,0-4.2,4.228V94.692a.423.423,0,0,0,.424.423H454.2a.423.423,0,0,0,.425-.423V87.876h9.207a.423.423,0,0,0,.425-.424V84.074a.424.424,0,0,0-.425-.423h-9.207V81.082a1.056,1.056,0,0,1,1.052-1.055h8.86a.426.426,0,0,0,.425-.424V76.228A.423.423,0,0,0,464.539,75.8Z"/><path class="b" d="M436,74.549h5.98a.43.43,0,0,0,.431-.428V69.768c0-.234-.123-.281-.277-.1L440.98,71.03a.355.355,0,0,1-.558,0l-1.152-1.361a.352.352,0,0,0-.557,0l-1.158,1.361a.349.349,0,0,1-.555,0l-1.152-1.361c-.153-.182-.278-.135-.278.1v4.353A.428.428,0,0,0,436,74.549Z"/><path class="b" d="M449.3,85.51A10.313,10.313,0,1,1,438.991,75.2,10.313,10.313,0,0,1,449.3,85.51Z"/><circle class="a" cx="5.891" cy="5.891" r="5.891" transform="translate(433.1 79.619)"/><path class="c" d="M448.885,76.477l-2.873-2.872v1.93a10.125,10.125,0,0,0-7.913,8.332,1.878,1.878,0,1,0,2.055.179,8.238,8.238,0,0,1,5.858-6.395v1.7Z"/><path class="c" d="M329.051,66.238a.381.381,0,0,1-.578,0l-1.2-1.324a.385.385,0,0,0-.579,0l-1.2,1.324a.378.378,0,0,1-.577,0l-1.2-1.324c-.157-.175-.287-.129-.287.1v4.229a.434.434,0,0,0,.446.419h6.2a.435.435,0,0,0,.448-.419V65.013c0-.228-.129-.274-.29-.1Z"/><path class="b" d="M313.588,83.778a13.4,13.4,0,1,0,13.4-13.4A13.416,13.416,0,0,0,313.588,83.778Z"/><path class="a" d="M316.025,83.778a10.963,10.963,0,1,1,10.963,10.963A10.975,10.975,0,0,1,316.025,83.778Z"/><path class="b" d="M329.306,78.436c0,.989.551,1.79,1.231,1.79s1.23-.8,1.23-1.79-.55-1.793-1.23-1.793S329.306,77.445,329.306,78.436Z"/><path class="b" d="M324.67,78.436c0,.989-.552,1.79-1.231,1.79s-1.231-.8-1.231-1.79.552-1.793,1.231-1.793S324.67,77.445,324.67,78.436Z"/><path class="c" d="M322.21,84.565c-.932-.934-2.459-2.459-2.46-2.462l1.093-1.094h-3.865v3.87l1.093-1.1,4.139,4.137,4.138-4.138L324.67,82.1S323.142,83.631,322.21,84.565Z"/><path class="c" d="M337,81.009h-3.869l1.1,1.1c-.009.009-1.53,1.527-2.461,2.459L329.308,82.1l-1.679,1.679,4.138,4.138,4.138-4.137,1.1,1.1Z"/></g></svg>