<svg id="Layer_1" data-name="Layer 1" xmlns="http://www.w3.org/2000/svg" viewBox="41.437 715.168 9.64 13.912"><defs><style>.cls-1{transform: matrix(1,0,0,1,0,0); fill:rgba(146,146,146,1)}</style></defs><path id="Path_3512" class="cls-1" d="M 49.88326644897461 720.5289916992188 L 49.88326644897461 718.7421264648438 C 49.88326644897461 716.7534790039063 48.29352569580078 715.168212890625 46.30783843994141 715.168212890625 C 44.31917190551758 715.168212890625 42.63230514526367 716.7534790039063 42.63230514526367 718.7421264648438 L 42.63230514526367 720.5289916992188 C 41.93455123901367 720.5289916992188 41.43701171875 721.128173828125 41.43701171875 721.822998046875 L 41.43701171875 727.8876953125 C 41.43701171875 728.480712890625 41.93455123901367 729.0799560546875 42.63230514526367 729.0799560546875 L 49.88326644897461 729.0799560546875 C 50.58251953125 729.0799560546875 51.07707214355469 728.480712890625 51.07707214355469 727.8876953125 L 51.07707214355469 721.822998046875 C 51.07707214355469 721.128173828125 50.58251953125 720.5289916992188 49.88326644897461 720.5289916992188 L 49.88326644897461 720.5289916992188 Z M 43.82311630249023 718.7421264648438 C 43.82311630249023 717.4526977539063 44.91681289672852 716.35595703125 46.30783843994141 716.35595703125 C 47.59727096557617 716.35595703125 48.69245529174805 717.4526977539063 48.69245529174805 718.7421264648438 L 48.69245529174805 720.5289916992188 L 43.82311630249023 720.5289916992188 L 43.82311630249023 718.7421264648438 Z M 49.88326644897461 727.8876953125 L 42.63230514526367 727.8876953125 L 42.63230514526367 721.822998046875 L 49.88326644897461 721.822998046875 L 49.88326644897461 727.8876953125 Z M 45.71168899536133 725.20263671875 L 45.71168899536133 725.99462890625 C 45.71168899536133 726.39501953125 45.90890884399414 726.59375 46.30783843994141 726.59375 C 46.60367965698242 726.59375 46.90399932861328 726.39501953125 46.90399932861328 725.99462890625 L 46.90399932861328 725.20263671875 C 47.20282363891602 725.00390625 47.50164413452148 724.6050415039063 47.50164413452148 724.2076416015625 C 47.50164413452148 723.5128173828125 46.90399932861328 723.0167846679688 46.30783843994141 723.0167846679688 C 45.61307144165039 723.0167846679688 45.11552810668945 723.5128173828125 45.11552810668945 724.2076416015625 C 45.11552810668945 724.6050415039063 45.31275177001953 725.00390625 45.71168899536133 725.20263671875 L 45.71168899536133 725.20263671875 Z">
				</path></svg>
