<svg id="Layer_1" data-name="Layer 1" xmlns="http://www.w3.org/2000/svg" viewBox="3.375 3.375 24 24"><defs><style>.cls-1{fill:rgba(29,158,72,1);}.cls-2{fill:#1e9e49;}</style></defs><path id="Icon_ionic-ios-contact" class="cls-1" d="M 15.37499713897705 3.375 C 15.37499713897705 3.375 15.37499713897705 3.375 15.37499713897705 3.375 L 15.37499713897705 3.375 C 9.173074722290039 3.375 4.07307767868042 8.076923370361328 3.444231033325195 14.11153793334961 C 3.398077011108398 14.52692222595215 3.375000476837158 14.94807624816895 3.375000476837158 15.375 C 3.375000476837158 15.80192375183105 3.398077011108398 16.22307586669922 3.444231033325195 16.63846206665039 C 4.07307767868042 22.6730785369873 9.173074722290039 27.375 15.37499713897705 27.375 L 15.37499713897705 27.375 C 15.37499713897705 27.375 15.37499713897705 27.375 15.37499713897705 27.375 C 22.00384330749512 27.375 27.375 22.00384902954102 27.375 15.375 C 27.375 8.746152877807617 22.00384330749512 3.375 15.37499713897705 3.375 Z M 23.2096118927002 22.18846321105957 C 21.89999389648438 21.69230651855469 19.77692031860352 20.96538352966309 18.45576667785645 20.57307815551758 C 18.31730270385742 20.53269195556641 18.29999732971191 20.52115249633789 18.29999732971191 19.95576858520508 C 18.29999732971191 19.48846244812012 18.49038124084473 19.01538467407227 18.68076515197754 18.61153793334961 C 18.88845634460449 18.17884635925293 19.12499618530273 17.44615364074707 19.2115364074707 16.78846168518066 C 19.45384216308594 16.50576782226563 19.78845977783203 15.95192337036133 19.99615097045898 14.89038467407227 C 20.18076515197754 13.95576858520508 20.0942268371582 13.61538314819336 19.97307395935059 13.29807662963867 C 19.96153450012207 13.26346015930176 19.9442253112793 13.22884368896484 19.93845748901367 13.19999885559082 C 19.89230537414551 12.98076820373535 19.95576477050781 11.84423065185547 20.11730194091797 10.96153831481934 C 20.22691917419434 10.35576820373535 20.08845710754395 9.069230079650879 19.25768661499023 8.001922607421875 C 18.73268699645996 7.326921939849854 17.72307395935059 6.501922130584717 15.88268661499023 6.386537075042725 L 14.87307167053223 6.386537075042725 C 13.06153392791748 6.501922130584717 12.05769062042236 7.326921939849854 11.5269193649292 8.001922607421875 C 10.69038009643555 9.069230079650879 10.55192089080811 10.35576820373535 10.66153526306152 10.96153831481934 C 10.823073387146 11.84423065185547 10.88653564453125 12.98076820373535 10.84038257598877 13.19999885559082 C 10.82884216308594 13.24038314819336 10.81730461120605 13.26922988891602 10.80576705932617 13.3038444519043 C 10.68461132049561 13.62115097045898 10.59230327606201 13.9615364074707 10.78268814086914 14.89615058898926 C 10.9961519241333 15.95768928527832 11.32499599456787 16.51153564453125 11.56730461120605 16.79422760009766 C 11.65384292602539 17.4519214630127 11.89615249633789 18.1788444519043 12.09807395935059 18.61730575561523 C 12.24807453155518 18.93461227416992 12.31730365753174 19.36730575561523 12.31730365753174 19.97884178161621 C 12.31730365753174 20.54999923706055 12.29422664642334 20.55576705932617 12.16730499267578 20.59615135192871 C 10.7999963760376 20.99999809265137 8.769228935241699 21.71538352966309 7.551920413970947 22.19999885559082 C 5.890384674072266 20.30192375183105 4.990385055541992 17.90769386291504 4.990385055541992 15.375 C 4.990385055541992 12.60000038146973 6.069231033325195 9.992307662963867 8.030768394470215 8.030770301818848 C 9.992306709289551 6.069231033325195 12.60000038146973 4.990385055541992 15.37499713897705 4.990385055541992 C 18.14999389648438 4.990385055541992 20.75768852233887 6.069231033325195 22.71922492980957 8.030770301818848 C 24.68076324462891 9.992307662963867 25.75961112976074 12.60000038146973 25.75961112976074 15.375 C 25.75961112976074 17.90769386291504 24.85961151123047 20.30192375183105 23.2096118927002 22.18846321105957 Z"></path></svg>