<svg xmlns="http://www.w3.org/2000/svg" viewBox="0 0 21 21"><defs><style>.cls-1{fill:none;}.cls-2{fill: rgba(216,56,56,1);}</style></defs><path id="Path_3523" data-name="Path 3523" class="cls-1" d="M0,0H21V21H0Z"/><path id="Path_3524" data-name="Path 3524" class="cls-2" d="M 6 19 C 6 20.10000038146973 6.900000095367432 21 8 21 L 16 21 C 17.10000038146973 21 18 20.10000038146973 18 19 L 18 7 L 6 7 L 6 19 Z M 8.460000038146973 11.88000011444092 L 9.869999885559082 10.47000026702881 L 12 12.59000015258789 L 14.11999988555908 10.47000026702881 L 15.52999973297119 11.88000011444092 L 13.40999984741211 14 L 15.52999973297119 16.11999893188477 L 14.11999988555908 17.52999877929688 L 12 15.40999984741211 L 9.880000114440918 17.52999877929688 L 8.470000267028809 16.11999893188477 L 10.59000015258789 14 L 8.460000038146973 11.88000011444092 Z M 15.5 4 L 14.5 3 L 9.5 3 L 8.5 4 L 5 4 L 5 6 L 19 6 L 19 4 L 15.5 4 Z"/></svg>