<svg xmlns="http://www.w3.org/2000/svg" viewBox="0 0 21 21"><defs><style>.cls-1{fill:none;}.cls-2{fill:#1e9e49;}</style></defs><path id="Path_3523" data-name="Path 3523" class="cls-1" d="M0,0H21V21H0Z"/><path id="Path_3524" data-name="Path 3524" class="cls-2" d="M 17.89129066467285 8.543750762939453 C 16.19659996032715 5.237187385559082 12.84159564971924 3 9.000025749206543 3 C 5.158455371856689 3 1.802511692047119 5.23875093460083 0.1087587028741837 8.544062614440918 C -0.03621886670589447 8.830843925476074 -0.03621886670589447 9.169468879699707 0.108758732676506 9.45625114440918 C 1.803449392318726 12.76281261444092 5.158455371856689 15 9.000025749206543 15 C 12.84159564971924 15 16.19753646850586 12.76124954223633 17.89129066467285 9.455937385559082 C 18.03626823425293 9.169156074523926 18.03626823425293 8.830531120300293 17.89129066467285 8.54374885559082 Z M 9.000025749206543 13.5 C 6.5147385597229 13.5 4.500016689300537 11.48528385162354 4.500016689300537 9.000000953674316 C 4.500016689300537 6.51471996307373 6.5147385597229 4.500001430511475 9.000025749206543 4.500001430511475 C 11.48531150817871 4.500001430511475 13.50003337860107 6.51471996307373 13.50003337860107 9.000000953674316 C 13.50124263763428 11.48578357696533 11.48581123352051 13.50121116638184 9.000025749206543 13.5 Z M 9.000025749206543 6.000000476837158 C 8.732253074645996 6.003742218017578 8.466209411621094 6.043580055236816 8.209086418151855 6.118437767028809 C 8.647064208984375 6.713631153106689 8.584588050842285 7.539498805999756 8.062055587768555 8.062029838562012 C 7.53952169418335 8.584563255310059 6.713652610778809 8.647038459777832 6.118457794189453 8.209062576293945 C 5.782159805297852 9.448052406311035 6.273449897766113 10.76351833343506 7.339589595794678 11.47873783111572 C 8.405729293823242 12.19395542144775 9.809246063232422 12.14961910247803 10.82811737060547 11.36853408813477 C 11.8469877243042 10.5874490737915 12.25426864624023 9.243595123291016 11.84043788909912 8.028304100036621 C 11.42660713195801 6.813012599945068 10.28384208679199 5.996977806091309 9.000025749206543 6.000000953674316 Z"/></svg>
